<svg width="33" height="36" viewBox="0 0 33 36" fill="none" xmlns="http://www.w3.org/2000/svg">
<g id="behance" clip-path="url(#clip0_111_86)">
<path id="Vector" d="M13.8633 20.6016C13.8633 21.9586 12.8789 22.3875 11.6695 22.3875H8.49844V18.668H11.7328C13.0406 18.675 13.8633 19.2164 13.8633 20.6016ZM13.3219 14.8148C13.3219 13.5703 12.3586 13.275 11.2898 13.275H8.50547V16.425H11.5078C12.5695 16.425 13.3219 15.9609 13.3219 14.8148ZM22.6242 16.4461C21.3375 16.4461 20.4797 17.2477 20.3953 18.5344H24.7688C24.6492 17.2336 23.9742 16.4461 22.6242 16.4461ZM32.25 5.625V30.375C32.25 32.2383 30.7383 33.75 28.875 33.75H4.125C2.26172 33.75 0.75 32.2383 0.75 30.375V5.625C0.75 3.76172 2.26172 2.25 4.125 2.25H28.875C30.7383 2.25 32.25 3.76172 32.25 5.625ZM19.8539 13.0078H25.3242V11.6789H19.8539V13.0078ZM16.8305 20.7633C16.8305 19.0687 16.0289 17.6062 14.3695 17.1352C15.5789 16.5586 16.2117 15.8906 16.2117 14.5336C16.2117 11.8477 14.2078 11.1937 11.8945 11.1937H5.53125V24.6938H12.0773C14.5313 24.6797 16.8305 23.5055 16.8305 20.7633ZM27.4688 19.7227C27.4688 16.8328 25.7742 14.4211 22.7156 14.4211C19.7344 14.4211 17.7164 16.657 17.7164 19.5961C17.7164 22.6406 19.6359 24.7289 22.7156 24.7289C25.05 24.7289 26.5617 23.6812 27.293 21.4383H24.9234C24.6633 22.275 23.6156 22.7109 22.8 22.7109C21.225 22.7109 20.4023 21.7898 20.4023 20.2289H27.4477C27.4547 20.0672 27.4688 19.8914 27.4688 19.7227Z" fill="white"/>
</g>
<defs>
<clipPath id="clip0_111_86">
<rect width="31.5" height="36" fill="white" transform="translate(0.75)"/>
</clipPath>
</defs>
</svg>
