<svg width="37" height="36" viewBox="0 0 37 36" fill="none" xmlns="http://www.w3.org/2000/svg">
<g id="dribbble">
<g id="Mask group">
<mask id="mask0_111_88" style="mask-type:luminance" maskUnits="userSpaceOnUse" x="2" y="2" width="33" height="32">
<g id="Group">
<g id="Group_2">
<path id="Vector" d="M33.25 18C33.2525 19.9757 32.8635 21.9324 32.1054 23.7569C31.3473 25.5814 30.2352 27.2376 28.8333 28.6298C27.4428 30.0178 25.7925 31.1182 23.9765 31.868C22.1606 32.6179 20.2147 33.0026 18.25 33C9.96551 33 3.25001 26.2845 3.25001 18C3.24477 14.1538 4.72217 10.4536 7.37501 7.66876C8.77477 6.19171 10.4612 5.01582 12.3311 4.21305C14.201 3.41028 16.2151 2.99751 18.25 3.00001C20.2147 2.99747 22.1606 3.38212 23.9765 4.132C25.7925 4.88187 27.4428 5.98225 28.8333 7.37026C30.2352 8.76243 31.3473 10.4186 32.1054 12.2431C32.8635 14.0676 33.2525 16.0243 33.25 18Z" fill="white" stroke="white" stroke-width="2" stroke-linecap="round" stroke-linejoin="round"/>
<path id="Vector_2" d="M33.25 17.9999C31.0615 17.9999 25.024 17.1749 19.6202 19.5472C13.75 22.1249 9.49972 26.1232 7.64722 28.6102" stroke="black" stroke-width="2" stroke-linecap="round" stroke-linejoin="round"/>
<path id="Vector_3" d="M12.625 4.09058C14.9725 6.25733 20.095 11.7736 22 17.2501C23.905 22.7266 24.61 29.4601 25.045 31.3763" stroke="black" stroke-width="2" stroke-linecap="round" stroke-linejoin="round"/>
<path id="Vector_4" d="M3.36548 16.125C6.19898 16.296 13.6997 16.4498 18.4997 14.4C23.2997 12.3503 27.43 8.58004 28.8467 7.38379" stroke="black" stroke-width="2" stroke-linecap="round" stroke-linejoin="round"/>
<path id="Vector_5" d="M4.37501 23.7098C5.69675 26.9092 8.08054 29.5555 11.125 31.203M3.25001 18C3.24477 14.1538 4.72217 10.4536 7.37501 7.66876C8.77477 6.19171 10.4612 5.01582 12.3311 4.21305C14.201 3.41028 16.2151 2.99751 18.25 3.00001M24.25 4.24801C25.9582 4.99542 27.5124 6.05419 28.8333 7.37026C30.2352 8.76243 31.3473 10.4186 32.1054 12.2431C32.8635 14.0676 33.2525 16.0243 33.25 18C33.25 19.8465 32.9163 21.6158 32.305 23.25M18.25 33C20.2147 33.0026 22.1606 32.6179 23.9765 31.868C25.7925 31.1182 27.4428 30.0178 28.8333 28.6298" stroke="white" stroke-width="2" stroke-linecap="round" stroke-linejoin="round"/>
</g>
</g>
</mask>
<g mask="url(#mask0_111_88)">
<path id="Vector_6" d="M0.25 0H36.25V36H0.25V0Z" fill="white"/>
</g>
</g>
</g>
</svg>
