<svg width="60" height="57" viewBox="0 0 60 57" fill="none" xmlns="http://www.w3.org/2000/svg">
<g id="&#240;&#159;&#166;&#134; emoji &#34;smiling face with sunglasses&#34;">
<path id="Vector" d="M29.8102 56.4407C15.8648 56.4407 0.819824 47.6936 0.819824 28.5C0.819824 9.30641 15.8648 0.559326 29.8102 0.559326C37.5576 0.559326 44.7052 3.10848 50.0034 7.75693C55.7515 12.8552 58.8005 20.0528 58.8005 28.5C58.8005 36.9472 55.7515 44.0948 50.0034 49.1931C44.7052 53.8416 37.5076 56.4407 29.8102 56.4407Z" fill="url(#paint0_radial_188_92)"/>
<path id="Vector_2" d="M53.7472 11.8906C56.4113 16.1891 57.8008 21.3074 57.8008 27.0005C57.8008 35.4477 54.7518 42.5953 49.0038 47.6936C43.7055 52.3421 36.5079 54.9412 28.8105 54.9412C19.7835 54.9412 10.3167 51.2674 4.72852 43.475C10.1067 52.3021 20.2234 56.4407 29.8102 56.4407C37.5076 56.4407 44.7052 53.8416 50.0034 49.1931C55.7515 44.0948 58.8005 36.9472 58.8005 28.5C58.8005 22.1322 57.0661 16.474 53.7472 11.8906Z" fill="#EB8F00"/>
<path id="Vector_3" d="M30.01 43.9499C24.2569 43.9499 20.1483 40.9509 18.9137 39.0815C18.4489 38.4767 18.3539 37.667 18.6638 36.9722C18.8987 36.5273 19.3636 36.2524 19.8684 36.2674C20.0533 36.2674 20.2383 36.2974 20.4132 36.3524C23.5272 37.2921 26.7611 37.7619 30.01 37.7419C33.2589 37.7619 36.4979 37.2921 39.6068 36.3524C39.7818 36.2974 39.9667 36.2674 40.1516 36.2674C40.6565 36.2524 41.1213 36.5273 41.3562 36.9722C41.6661 37.667 41.5712 38.4767 41.1063 39.0815C39.8717 40.9609 35.7631 43.9499 30.01 43.9499Z" fill="#422B0D"/>
<path id="Vector_4" d="M60 19.7629C60 19.7629 57.8707 19.8079 57.8707 21.5123C57.8707 25.7209 57.9207 34.7529 46.8744 34.7529C38.0473 34.7529 33.8337 30.1944 33.124 25.1611C32.8341 23.0668 32.1243 20.7876 29.99 20.7876C27.8557 20.7876 27.1659 23.0518 26.876 25.1611C26.1663 30.1944 21.9527 34.7529 13.1256 34.7529C2.0993 34.7529 2.12929 25.7209 2.12929 21.5123C2.12929 19.8079 0 19.7629 0 19.7629V15.5943C3.42386 15.1445 6.87271 14.9345 10.3216 14.9645C16.5595 14.9645 19.0437 14.9645 24.007 15.4643C26.941 15.7542 30.005 15.7892 30.005 15.7892C30.005 15.7892 33.054 15.7542 36.003 15.4643C40.9663 14.9645 43.4505 14.9645 49.6884 14.9645C53.1373 14.9345 56.5811 15.1495 60 15.5943V19.7629Z" fill="#422B0D"/>
<g id="Group">
<path id="Vector_5" d="M8.57728 23.0518C8.5273 23.8515 8.2074 24.5913 7.42267 24.7413C7.3327 24.7562 7.24772 24.7662 7.15775 24.7662C6.45299 24.7612 5.84819 24.2514 5.73823 23.5516C5.43333 22.1721 5.76822 20.7276 6.64792 19.623C7.45765 18.6433 8.66725 18.0785 9.93683 18.0835C10.6916 18.0135 11.3614 18.5683 11.4313 19.3231C11.4313 19.3381 11.4363 19.353 11.4363 19.373C11.4363 20.3127 10.6866 20.7126 9.93683 20.9725C9.1171 21.3424 8.58728 22.1521 8.57728 23.0518Z" fill="#896024"/>
<path id="Vector_6" d="M40.3563 23.0518C40.3113 23.8515 39.9864 24.5913 39.2067 24.7413C39.1167 24.7562 39.0268 24.7662 38.9368 24.7662C38.227 24.7662 37.6222 24.2514 37.5073 23.5516C37.2024 22.1721 37.5373 20.7276 38.417 19.623C39.2317 18.6433 40.4363 18.0785 41.7109 18.0835C42.4656 18.0135 43.1354 18.5683 43.2054 19.3231C43.2054 19.3381 43.2104 19.353 43.2104 19.373C43.2104 20.3127 42.4606 20.7126 41.7109 20.9725C40.8961 21.3424 40.3663 22.1521 40.3563 23.0518Z" fill="#896024"/>
</g>
</g>
<defs>
<radialGradient id="paint0_radial_188_92" cx="0" cy="0" r="1" gradientUnits="userSpaceOnUse" gradientTransform="translate(29.8102 28.5) scale(28.4704 28.4704)">
<stop offset="0.5" stop-color="#FDE030"/>
<stop offset="0.92" stop-color="#F7C02B"/>
<stop offset="1" stop-color="#F4A223"/>
</radialGradient>
</defs>
</svg>
