<svg width="37" height="36" viewBox="0 0 37 36" fill="none" xmlns="http://www.w3.org/2000/svg">
<g id="instagram">
<path id="Vector" d="M19.7919 3.0016C20.8865 2.9974 21.9811 3.0084 23.0754 3.0346L23.3664 3.0451C23.7024 3.0571 24.0339 3.0721 24.4344 3.0901C26.0304 3.1651 27.1194 3.4171 28.0749 3.7876C29.0649 4.1686 29.8989 4.6846 30.7329 5.5186C31.4954 6.26801 32.0856 7.17452 32.4624 8.1751C32.8329 9.1306 33.0849 10.2211 33.1599 11.8171C33.1779 12.2161 33.1929 12.5491 33.2049 12.8851L33.2139 13.1761C33.2405 14.2699 33.252 15.364 33.2484 16.4581L33.2499 17.5771V19.5421C33.2536 20.6367 33.2421 21.7313 33.2154 22.8256L33.2064 23.1166C33.1944 23.4526 33.1794 23.7841 33.1614 24.1846C33.0864 25.7806 32.8314 26.8696 32.4624 27.8251C32.0869 28.8268 31.4965 29.734 30.7329 30.4831C29.9828 31.2456 29.0759 31.8357 28.0749 32.2126C27.1194 32.5831 26.0304 32.8351 24.4344 32.9101C24.0339 32.9281 23.7024 32.9431 23.3664 32.9551L23.0754 32.9641C21.9811 32.9908 20.8865 33.0023 19.7919 32.9986L18.6729 33.0001H16.7094C15.6148 33.0038 14.5202 32.9923 13.4259 32.9656L13.1349 32.9566C12.7788 32.9437 12.4228 32.9287 12.0669 32.9116C10.4709 32.8366 9.38189 32.5816 8.42489 32.2126C7.42391 31.8366 6.51725 31.2463 5.76839 30.4831C5.00496 29.7335 4.41423 28.8265 4.03739 27.8251C3.66689 26.8696 3.41489 25.7806 3.33989 24.1846C3.32318 23.8287 3.30818 23.4727 3.29489 23.1166L3.28739 22.8256C3.25973 21.7313 3.24723 20.6367 3.24989 19.5421V16.4581C3.2457 15.364 3.2567 14.2699 3.28289 13.1761L3.29339 12.8851C3.30539 12.5491 3.32039 12.2161 3.33839 11.8171C3.41339 10.2196 3.66539 9.1321 4.03589 8.1751C4.41295 7.17403 5.00483 6.26777 5.76989 5.5201C6.51823 4.75623 7.42433 4.16496 8.42489 3.7876C9.38189 3.4171 10.4694 3.1651 12.0669 3.0901L13.1349 3.0451L13.4259 3.0376C14.5197 3.00996 15.6138 2.99746 16.7079 3.0001L19.7919 3.0016ZM18.2499 10.5016C17.2561 10.4875 16.2695 10.6711 15.3474 11.0417C14.4252 11.4123 13.5859 11.9624 12.8782 12.6602C12.1705 13.358 11.6085 14.1894 11.2249 15.1062C10.8413 16.0231 10.6438 17.007 10.6438 18.0009C10.6438 18.9947 10.8413 19.9786 11.2249 20.8955C11.6085 21.8123 12.1705 22.6438 12.8782 23.3415C13.5859 24.0393 14.4252 24.5894 15.3474 24.96C16.2695 25.3306 17.2561 25.5142 18.2499 25.5001C20.239 25.5001 22.1467 24.7099 23.5532 23.3034C24.9597 21.8969 25.7499 19.9892 25.7499 18.0001C25.7499 16.011 24.9597 14.1033 23.5532 12.6968C22.1467 11.2903 20.239 10.5016 18.2499 10.5016ZM18.2499 13.5016C18.8476 13.4906 19.4416 13.5988 19.9971 13.8199C20.5526 14.041 21.0584 14.3706 21.4851 14.7894C21.9117 15.2082 22.2507 15.7079 22.4821 16.2591C22.7135 16.8104 22.8327 17.4022 22.8328 18.0001C22.8329 18.598 22.7139 19.1898 22.4826 19.7412C22.2514 20.2925 21.9127 20.7923 21.4861 21.2112C21.0596 21.6302 20.5539 21.9599 19.9985 22.1812C19.4431 22.4025 18.8492 22.5109 18.2514 22.5001C17.0579 22.5001 15.9133 22.026 15.0694 21.1821C14.2255 20.3382 13.7514 19.1936 13.7514 18.0001C13.7514 16.8066 14.2255 15.662 15.0694 14.8181C15.9133 13.9742 17.0579 13.5001 18.2514 13.5001L18.2499 13.5016ZM26.1249 8.2516C25.641 8.27097 25.1833 8.47683 24.8478 8.82606C24.5123 9.17529 24.3249 9.64081 24.3249 10.1251C24.3249 10.6094 24.5123 11.0749 24.8478 11.4241C25.1833 11.7734 25.641 11.9792 26.1249 11.9986C26.6222 11.9986 27.0991 11.8011 27.4507 11.4494C27.8023 11.0978 27.9999 10.6209 27.9999 10.1236C27.9999 9.62632 27.8023 9.14941 27.4507 8.79778C27.0991 8.44615 26.6222 8.2486 26.1249 8.2486V8.2516Z" fill="white"/>
</g>
</svg>
